<svg xmlns="http://www.w3.org/2000/svg" viewBox="0 0 600 400">
<style>
  .title { font: bold 16px sans-serif; }
  .axis-label { font: 12px sans-serif; }
  .legend { font: 12px sans-serif; }
  .grid { stroke: #e0e0e0; stroke-width: 1; }
  .rust-line { stroke: #e74c3c; stroke-width: 2; fill: none; }
  .c-line { stroke: #3498db; stroke-width: 2; fill: none; }
  .rust-point { fill: #e74c3c; }
  .c-point { fill: #3498db; }
</style>
<text x="300.0" y="25" text-anchor="middle" class="title">mozjpeg-oxide vs C mozjpeg: DSSIM</text>
<line x1="80" y1="340" x2="480" y2="340" stroke="black"/>
<line x1="80" y1="40" x2="80" y2="340" stroke="black"/>
<text x="300.0" y="385" text-anchor="middle" class="axis-label">Bits per Pixel (BPP)</text>
<text x="20" y="200.0" text-anchor="middle" class="axis-label" transform="rotate(-90 20 200.0)">DSSIM (lower is better)</text>
<line x1="80.0" y1="40" x2="80.0" y2="340" class="grid"/>
<text x="80.0" y="355" text-anchor="middle" class="axis-label">0.04</text>
<line x1="80" y1="40.0" x2="480" y2="40.0" class="grid"/>
<text x="70" y="44.0" text-anchor="end" class="axis-label">-0.0011</text>
<line x1="180.0" y1="40" x2="180.0" y2="340" class="grid"/>
<text x="180.0" y="355" text-anchor="middle" class="axis-label">0.67</text>
<line x1="80" y1="115.0" x2="480" y2="115.0" class="grid"/>
<text x="70" y="119.0" text-anchor="end" class="axis-label">0.0033</text>
<line x1="280.0" y1="40" x2="280.0" y2="340" class="grid"/>
<text x="280.0" y="355" text-anchor="middle" class="axis-label">1.31</text>
<line x1="80" y1="190.0" x2="480" y2="190.0" class="grid"/>
<text x="70" y="194.0" text-anchor="end" class="axis-label">0.0077</text>
<line x1="380.0" y1="40" x2="380.0" y2="340" class="grid"/>
<text x="380.0" y="355" text-anchor="middle" class="axis-label">1.94</text>
<line x1="80" y1="265.0" x2="480" y2="265.0" class="grid"/>
<text x="70" y="269.0" text-anchor="end" class="axis-label">0.0121</text>
<line x1="480.0" y1="40" x2="480.0" y2="340" class="grid"/>
<text x="480.0" y="355" text-anchor="middle" class="axis-label">2.58</text>
<line x1="80" y1="340.0" x2="480" y2="340.0" class="grid"/>
<text x="70" y="344.0" text-anchor="end" class="axis-label">0.0165</text>
<path d="M 113.33333333333334,315.0 L 129.54227399024117,215.0314017926424 L 144.24270201253205,168.15557619341473 L 157.88648071724168,141.9835521693173 L 173.13189310778142,124.29591125992091 L 195.64295059250426,105.71219962240863 L 212.55655109676252,95.72265975841485 L 238.82874409265094,87.25014816489377 L 270.89763530294465,79.84175683849719 L 331.8863077725192,71.55130782249539 L 446.6666666666667,65.01842438091514" class="rust-line"/>
<circle cx="113.33333333333334" cy="315.0" r="4" class="rust-point"/>
<circle cx="129.54227399024117" cy="215.0314017926424" r="4" class="rust-point"/>
<circle cx="144.24270201253205" cy="168.15557619341473" r="4" class="rust-point"/>
<circle cx="157.88648071724168" cy="141.9835521693173" r="4" class="rust-point"/>
<circle cx="173.13189310778142" cy="124.29591125992091" r="4" class="rust-point"/>
<circle cx="195.64295059250426" cy="105.71219962240863" r="4" class="rust-point"/>
<circle cx="212.55655109676252" cy="95.72265975841485" r="4" class="rust-point"/>
<circle cx="238.82874409265094" cy="87.25014816489377" r="4" class="rust-point"/>
<circle cx="270.89763530294465" cy="79.84175683849719" r="4" class="rust-point"/>
<circle cx="331.8863077725192" cy="71.55130782249539" r="4" class="rust-point"/>
<circle cx="446.6666666666667" cy="65.01842438091514" r="4" class="rust-point"/>
<path d="M 113.45608508887096,312.23277163054706 L 129.64872618541872,213.35308152429596 L 144.1519528807706,166.9826234656532 L 157.56155588901052,141.14724535495412 L 172.49420692437909,123.6202487948237 L 194.57051098789717,105.24374499752547 L 210.78644922923723,95.36677073850271 L 235.85790513160106,87.02512387807099 L 266.64197006126136,79.68389249033109 L 323.6620076794537,71.48091269574569 L 431.3869641428441,65.0" class="c-line"/>
<circle cx="113.45608508887096" cy="312.23277163054706" r="4" class="c-point"/>
<circle cx="129.64872618541872" cy="213.35308152429596" r="4" class="c-point"/>
<circle cx="144.1519528807706" cy="166.9826234656532" r="4" class="c-point"/>
<circle cx="157.56155588901052" cy="141.14724535495412" r="4" class="c-point"/>
<circle cx="172.49420692437909" cy="123.6202487948237" r="4" class="c-point"/>
<circle cx="194.57051098789717" cy="105.24374499752547" r="4" class="c-point"/>
<circle cx="210.78644922923723" cy="95.36677073850271" r="4" class="c-point"/>
<circle cx="235.85790513160106" cy="87.02512387807099" r="4" class="c-point"/>
<circle cx="266.64197006126136" cy="79.68389249033109" r="4" class="c-point"/>
<circle cx="323.6620076794537" cy="71.48091269574569" r="4" class="c-point"/>
<circle cx="431.3869641428441" cy="65.0" r="4" class="c-point"/>
<rect x="490" y="50" width="100" height="50" fill="white" stroke="#ccc"/>
<circle cx="505" cy="65" r="4" class="rust-point"/>
<text x="515" y="69" class="legend">Rust</text>
<circle cx="505" cy="85" r="4" class="c-point"/>
<text x="515" y="89" class="legend">C mozjpeg</text>
</svg>