<svg xmlns="http://www.w3.org/2000/svg" viewBox="0 0 700 450">
<style>
  :root {
    --bg-color: #ffffff;
    --text-color: #1a1a1a;
    --grid-color: #e0e0e0;
    --axis-color: #333333;
    --legend-bg: #ffffff;
    --legend-border: #cccccc;
  }
  @media (prefers-color-scheme: dark) {
    :root {
      --bg-color: #1a1a1a;
      --text-color: #e0e0e0;
      --grid-color: #404040;
      --axis-color: #b0b0b0;
      --legend-bg: #2a2a2a;
      --legend-border: #505050;
    }
  }
  .background { fill: var(--bg-color); }
  .title { font: bold 18px system-ui, sans-serif; fill: var(--text-color); }
  .axis-label { font: 13px system-ui, sans-serif; fill: var(--text-color); }
  .tick-label { font: 11px system-ui, sans-serif; fill: var(--text-color); }
  .legend { font: 13px system-ui, sans-serif; fill: var(--text-color); }
  .grid { stroke: var(--grid-color); stroke-width: 1; }
  .axis { stroke: var(--axis-color); stroke-width: 1.5; }
  .rust-line { stroke: #e74c3c; stroke-width: 2.5; fill: none; }
  .c-line { stroke: #3498db; stroke-width: 2.5; fill: none; }
  .rust-point { fill: #e74c3c; }
  .c-point { fill: #3498db; }
  .legend-bg { fill: var(--legend-bg); stroke: var(--legend-border); }
</style>
<rect class="background" width="700" height="450"/>
<text x="350.0" y="30" text-anchor="middle" class="title">mozjpeg-oxide vs C mozjpeg: Quality vs Size</text>
<line x1="90.0" y1="50" x2="90.0" y2="380" class="grid"/>
<line x1="90" y1="380.0" x2="560" y2="380.0" class="grid"/>
<line x1="184.0" y1="50" x2="184.0" y2="380" class="grid"/>
<line x1="90" y1="314.0" x2="560" y2="314.0" class="grid"/>
<line x1="278.0" y1="50" x2="278.0" y2="380" class="grid"/>
<line x1="90" y1="248.0" x2="560" y2="248.0" class="grid"/>
<line x1="372.0" y1="50" x2="372.0" y2="380" class="grid"/>
<line x1="90" y1="182.0" x2="560" y2="182.0" class="grid"/>
<line x1="465.99999999999994" y1="50" x2="465.99999999999994" y2="380" class="grid"/>
<line x1="90" y1="115.99999999999999" x2="560" y2="115.99999999999999" class="grid"/>
<line x1="560.0" y1="50" x2="560.0" y2="380" class="grid"/>
<line x1="90" y1="50.0" x2="560" y2="50.0" class="grid"/>
<line x1="90" y1="380" x2="560" y2="380" class="axis"/>
<line x1="90" y1="50" x2="90" y2="380" class="axis"/>
<text x="90.0" y="400" text-anchor="middle" class="tick-label">-0.10</text>
<text x="80" y="384.0" text-anchor="end" class="tick-label">-66.0</text>
<text x="184.0" y="400" text-anchor="middle" class="tick-label">0.71</text>
<text x="80" y="318.0" text-anchor="end" class="tick-label">-33.5</text>
<text x="278.0" y="400" text-anchor="middle" class="tick-label">1.52</text>
<text x="80" y="252.0" text-anchor="end" class="tick-label">-0.9</text>
<text x="372.0" y="400" text-anchor="middle" class="tick-label">2.33</text>
<text x="80" y="186.0" text-anchor="end" class="tick-label">31.6</text>
<text x="465.99999999999994" y="400" text-anchor="middle" class="tick-label">3.14</text>
<text x="80" y="119.99999999999999" text-anchor="end" class="tick-label">64.2</text>
<text x="560.0" y="400" text-anchor="middle" class="tick-label">3.96</text>
<text x="80" y="54.0" text-anchor="end" class="tick-label">96.7</text>
<text x="350.0" y="430" text-anchor="middle" class="axis-label">Bits per Pixel (BPP) →</text>
<text x="25" y="225.0" text-anchor="middle" class="axis-label" transform="rotate(-90 25 225.0)">← SSIMULACRA2 Score (higher is better)</text>
<path d="M 111.48,365.00 L 120.24,294.16 L 128.89,240.91 L 136.90,206.48 L 144.63,183.20 L 151.83,167.72 L 158.84,154.50 L 165.30,145.31 L 171.51,138.11 L 177.79,130.72 L 184.79,125.02 L 191.63,120.72 L 201.17,113.62 L 211.77,108.37 L 226.76,100.58 L 249.91,93.76 L 277.92,87.04 L 329.88,78.41 L 357.15,75.57 L 429.16,69.73 L 538.64,65.00" class="rust-line"/>
<circle cx="111.48" cy="365.00" r="5" class="rust-point"/>
<circle cx="120.24" cy="294.16" r="5" class="rust-point"/>
<circle cx="128.89" cy="240.91" r="5" class="rust-point"/>
<circle cx="136.90" cy="206.48" r="5" class="rust-point"/>
<circle cx="144.63" cy="183.20" r="5" class="rust-point"/>
<circle cx="151.83" cy="167.72" r="5" class="rust-point"/>
<circle cx="158.84" cy="154.50" r="5" class="rust-point"/>
<circle cx="165.30" cy="145.31" r="5" class="rust-point"/>
<circle cx="171.51" cy="138.11" r="5" class="rust-point"/>
<circle cx="177.79" cy="130.72" r="5" class="rust-point"/>
<circle cx="184.79" cy="125.02" r="5" class="rust-point"/>
<circle cx="191.63" cy="120.72" r="5" class="rust-point"/>
<circle cx="201.17" cy="113.62" r="5" class="rust-point"/>
<circle cx="211.77" cy="108.37" r="5" class="rust-point"/>
<circle cx="226.76" cy="100.58" r="5" class="rust-point"/>
<circle cx="249.91" cy="93.76" r="5" class="rust-point"/>
<circle cx="277.92" cy="87.04" r="5" class="rust-point"/>
<circle cx="329.88" cy="78.41" r="5" class="rust-point"/>
<circle cx="357.15" cy="75.57" r="5" class="rust-point"/>
<circle cx="429.16" cy="69.73" r="5" class="rust-point"/>
<circle cx="538.64" cy="65.00" r="5" class="rust-point"/>
<path d="M 111.36,364.79 L 120.23,293.52 L 129.02,240.15 L 137.13,205.66 L 144.92,182.47 L 152.11,167.08 L 159.04,153.92 L 165.48,144.68 L 171.66,137.61 L 177.81,130.24 L 184.62,124.54 L 191.35,120.24 L 200.55,113.22 L 211.28,108.01 L 225.67,100.26 L 247.85,93.54 L 274.81,86.93 L 323.70,78.33 L 349.80,75.55 L 416.93,69.73 L 516.42,65.05" class="c-line"/>
<circle cx="111.36" cy="364.79" r="5" class="c-point"/>
<circle cx="120.23" cy="293.52" r="5" class="c-point"/>
<circle cx="129.02" cy="240.15" r="5" class="c-point"/>
<circle cx="137.13" cy="205.66" r="5" class="c-point"/>
<circle cx="144.92" cy="182.47" r="5" class="c-point"/>
<circle cx="152.11" cy="167.08" r="5" class="c-point"/>
<circle cx="159.04" cy="153.92" r="5" class="c-point"/>
<circle cx="165.48" cy="144.68" r="5" class="c-point"/>
<circle cx="171.66" cy="137.61" r="5" class="c-point"/>
<circle cx="177.81" cy="130.24" r="5" class="c-point"/>
<circle cx="184.62" cy="124.54" r="5" class="c-point"/>
<circle cx="191.35" cy="120.24" r="5" class="c-point"/>
<circle cx="200.55" cy="113.22" r="5" class="c-point"/>
<circle cx="211.28" cy="108.01" r="5" class="c-point"/>
<circle cx="225.67" cy="100.26" r="5" class="c-point"/>
<circle cx="247.85" cy="93.54" r="5" class="c-point"/>
<circle cx="274.81" cy="86.93" r="5" class="c-point"/>
<circle cx="323.70" cy="78.33" r="5" class="c-point"/>
<circle cx="349.80" cy="75.55" r="5" class="c-point"/>
<circle cx="416.93" cy="69.73" r="5" class="c-point"/>
<circle cx="516.42" cy="65.05" r="5" class="c-point"/>
<rect x="575" y="55" width="115" height="60" rx="4" class="legend-bg"/>
<circle cx="590" cy="75" r="5" class="rust-point"/>
<text x="603" y="79" class="legend">mozjpeg-oxide</text>
<circle cx="590" cy="100" r="5" class="c-point"/>
<text x="603" y="104" class="legend">C mozjpeg</text>
</svg>